<svg width="64" height="64" viewBox="0 0 64 64" fill="none" xmlns="http://www.w3.org/2000/svg">
<path d="M54 18C56.2091 18 58 19.7909 58 22V50C58 52.2091 56.2091 54 54 54H10C7.79086 54 6 52.2091 6 50V13C6 11.3431 7.34315 10 9 10H26C29.0284 10 31.6637 11.6827 33.0221 14.1641C34.0829 16.1019 35.7909 18 38 18H54Z" fill="#777777"/>
<path d="M60 26C61.7979 26 63.3184 27.1861 63.8223 28.8185C63.9734 29.3079 63.9052 29.8303 63.7645 30.3228L57.8289 51.0988C57.3383 52.8161 55.7687 54 53.9828 54H10C9.15617 54 8.37382 53.7384 7.72893 53.292C6.82332 52.6653 6.73204 51.4398 7.03459 50.3808L13.1712 28.9012C13.6618 27.1839 15.2313 26 17.0173 26H60Z" fill="#D9D9D9"/>
</svg>
