<svg width="64" height="64" viewBox="0 0 64 64" fill="none" xmlns="http://www.w3.org/2000/svg">
<mask id="path-1-inside-1_20_3" fill="white">
<path d="M54 18C56.2091 18 58 19.7909 58 22V50C58 52.2091 56.2091 54 54 54H10C7.79086 54 6 52.2091 6 50V13C6 11.3431 7.34315 10 9 10H26C29.0284 10 31.6637 11.6827 33.0221 14.1641C34.0829 16.1019 35.7909 18 38 18H54Z"/>
</mask>
<path d="M54 18C56.2091 18 58 19.7909 58 22V50C58 52.2091 56.2091 54 54 54H10C7.79086 54 6 52.2091 6 50V13C6 11.3431 7.34315 10 9 10H26C29.0284 10 31.6637 11.6827 33.0221 14.1641C34.0829 16.1019 35.7909 18 38 18H54Z" fill="#777777" fill-opacity="0.25"/>
<path d="M58 22H62H58ZM54 54V58V58V54ZM6 50H2H6ZM9 10V6V10ZM33.0221 14.1641L36.5308 12.2434L33.0221 14.1641ZM54 18V22V22H58H62C62 17.5817 58.4183 14 54 14V18ZM58 22H54V50H58H62V22H58ZM58 50H54V50V54V58C58.4183 58 62 54.4183 62 50H58ZM54 54V50H10V54V58H54V54ZM10 54V50V50H6H2C2 54.4183 5.58172 58 10 58V54ZM6 50H10V13H6H2V50H6ZM6 13H10C10 13.5523 9.55228 14 9 14V10V6C5.13401 6 2 9.13401 2 13H6ZM9 10V14H26V10V6H9V10ZM26 10V14C27.5088 14 28.8286 14.8338 29.5134 16.0848L33.0221 14.1641L36.5308 12.2434C34.4989 8.53156 30.548 6 26 6V10ZM38 18V22H54V18V14H38V18ZM33.0221 14.1641L29.5134 16.0848C30.1928 17.3259 31.1629 18.7185 32.4764 19.845C33.8102 20.9889 35.6785 22 38 22V18V14C38.1124 14 38.0221 14.062 37.6844 13.7724C37.3265 13.4654 36.9122 12.9402 36.5308 12.2434L33.0221 14.1641Z" fill="#777777" mask="url(#path-1-inside-1_20_3)"/>
<rect x="8" y="20" width="48" height="32" rx="2" stroke="#D9D9D9" stroke-width="4"/>
</svg>
