<svg width="18" height="18" viewBox="0 0 18 18" fill="none" xmlns="http://www.w3.org/2000/svg">
<path d="M9 8.25C8.58579 8.25 8.25 8.58579 8.25 9C8.25 9.41421 8.58579 9.75 9 9.75L9 9L9 8.25ZM17.5303 9.53033C17.8232 9.23744 17.8232 8.76256 17.5303 8.46967L12.7574 3.6967C12.4645 3.40381 11.9896 3.40381 11.6967 3.6967C11.4038 3.98959 11.4038 4.46447 11.6967 4.75736L15.9393 9L11.6967 13.2426C11.4038 13.5355 11.4038 14.0104 11.6967 14.3033C11.9896 14.5962 12.4645 14.5962 12.7574 14.3033L17.5303 9.53033ZM9 9L9 9.75L17 9.75L17 9L17 8.25L9 8.25L9 9Z" fill="#D9D9D9"/>
<path d="M9 9.75C9.41421 9.75 9.75 9.41421 9.75 9C9.75 8.58579 9.41421 8.25 9 8.25L9 9L9 9.75ZM0.46967 8.46967C0.176777 8.76256 0.176777 9.23744 0.46967 9.53033L5.24264 14.3033C5.53553 14.5962 6.01041 14.5962 6.3033 14.3033C6.59619 14.0104 6.59619 13.5355 6.3033 13.2426L2.06066 9L6.3033 4.75736C6.59619 4.46447 6.59619 3.98959 6.3033 3.6967C6.01041 3.40381 5.53553 3.40381 5.24264 3.6967L0.46967 8.46967ZM9 9L9 8.25L1 8.25L1 9L1 9.75L9 9.75L9 9Z" fill="#D9D9D9"/>
<circle cx="9" cy="9" r="3" fill="white"/>
</svg>
