<svg width="16" height="16" viewBox="0 0 16 16" fill="none" xmlns="http://www.w3.org/2000/svg">
<path d="M8 1C11.866 1 15 4.13401 15 8C15 11.866 11.866 15 8 15C4.13401 15 1 11.866 1 8C1 4.13401 4.13401 1 8 1ZM7.71191 10.7529C7.38049 10.7529 7.09664 10.8686 6.86133 11.1006C6.62932 11.3326 6.51524 11.6117 6.51855 11.9365C6.51535 12.2644 6.62948 12.5461 6.86133 12.7812C7.09665 13.0133 7.38047 13.1289 7.71191 13.1289C7.92388 13.1289 8.11899 13.0757 8.29785 12.9697C8.47667 12.8604 8.62113 12.7168 8.73047 12.5381C8.84308 12.3559 8.90189 12.1551 8.90527 11.9365C8.90196 11.6117 8.78063 11.3326 8.54199 11.1006C8.30344 10.8687 8.02663 10.753 7.71191 10.7529ZM7.91504 2.67871C7.31531 2.67876 6.76657 2.78657 6.26953 3.00195C5.77248 3.21408 5.37285 3.53756 5.07129 3.97168C4.7698 4.40251 4.6113 4.94956 4.59473 5.6123H6.62305C6.63299 5.34052 6.69866 5.11296 6.82129 4.93066C6.94388 4.74516 7.10181 4.60646 7.29395 4.51367C7.4861 4.41759 7.68994 4.36918 7.90527 4.36914C8.12727 4.36914 8.32947 4.41605 8.51172 4.50879C8.69725 4.60156 8.84474 4.734 8.9541 4.90625C9.06348 5.0786 9.11816 5.27912 9.11816 5.50781C9.11816 5.72325 9.07073 5.91906 8.97461 6.09473C8.87856 6.26691 8.74913 6.424 8.58691 6.56641C8.42456 6.70888 8.24056 6.84696 8.03516 6.97949C7.76022 7.15174 7.52458 7.34369 7.3291 7.55566C7.13355 7.76779 6.98458 8.0469 6.88184 8.3916C6.78243 8.73627 6.73086 9.19842 6.72754 9.77832V9.94727H8.61133V9.77832C8.61465 9.45358 8.65583 9.18004 8.73535 8.95801C8.81821 8.73594 8.94268 8.54013 9.1084 8.37109C9.27743 8.20208 9.49307 8.03955 9.75488 7.88379C10.0664 7.6982 10.3368 7.49136 10.5654 7.2627C10.794 7.03077 10.9717 6.76593 11.0977 6.46777C11.2269 6.16626 11.291 5.82123 11.291 5.43359C11.291 4.85357 11.1468 4.35727 10.8584 3.94629C10.5701 3.53551 10.172 3.2222 9.66504 3.00684C9.15805 2.78822 8.5744 2.67871 7.91504 2.67871Z" fill="#D9D9D9"/>
</svg>
