<svg width="18" height="18" viewBox="0 0 18 18" fill="none" xmlns="http://www.w3.org/2000/svg">
<g clip-path="url(#clip0_77_101)">
<path d="M14.6569 3.34314C13.6639 2.35016 12.427 1.63605 11.0706 1.27259C9.71411 0.909135 8.28589 0.909136 6.92945 1.27259C5.573 1.63605 4.33613 2.35016 3.34314 3.34315C2.35016 4.33613 1.63605 5.57301 1.27259 6.92945C0.909135 8.28589 0.909136 9.71411 1.27259 11.0706C1.63605 12.427 2.35016 13.6639 3.34315 14.6569C4.33613 15.6498 5.57301 16.3639 6.92945 16.7274C8.28589 17.0909 9.71411 17.0909 11.0706 16.7274L10.4494 14.4092C9.49988 14.6636 8.50013 14.6636 7.55061 14.4092C6.6011 14.1548 5.73529 13.6549 5.0402 12.9598C4.34511 12.2647 3.84524 11.3989 3.59082 10.4494C3.3364 9.49988 3.33639 8.50012 3.59082 7.55061C3.84524 6.6011 4.34511 5.73529 5.0402 5.0402C5.73529 4.34511 6.6011 3.84524 7.55061 3.59082C8.50012 3.3364 9.49988 3.33639 10.4494 3.59082C11.3989 3.84524 12.2647 4.34511 12.9598 5.0402L14.6569 3.34314Z" fill="url(#paint0_linear_77_101)"/>
<path d="M17.1908 6.57411C17.2966 6.94997 16.95 7.29659 16.5741 7.19084L12.0967 5.93117C11.7289 5.82767 11.6084 5.36651 11.8786 5.0963L15.0963 1.87862C15.3665 1.60841 15.8276 1.7289 15.9311 2.09676L17.1908 6.57411Z" fill="url(#paint1_linear_77_101)"/>
<circle cx="9" cy="9" r="3" fill="white"/>
</g>
<defs>
<linearGradient id="paint0_linear_77_101" x1="9" y1="1" x2="9" y2="17" gradientUnits="userSpaceOnUse">
<stop stop-color="#D9D9D9"/>
<stop offset="1" stop-color="#737373"/>
</linearGradient>
<linearGradient id="paint1_linear_77_101" x1="9.55442" y1="0.357337" x2="9.2949" y2="18.273" gradientUnits="userSpaceOnUse">
<stop stop-color="#D9D9D9"/>
<stop offset="1" stop-color="#737373"/>
</linearGradient>
<clipPath id="clip0_77_101">
<rect width="18" height="18" fill="white"/>
</clipPath>
</defs>
</svg>
