<svg width="64" height="64" viewBox="0 0 64 64" fill="none" xmlns="http://www.w3.org/2000/svg">
<path d="M12 8C12 6.89543 12.8954 6 14 6H36C44.8366 6 52 13.1634 52 22V56C52 57.1046 51.1046 58 50 58H14C12.8954 58 12 57.1046 12 56V8Z" fill="#D9D9D9"/>
<path d="M31.8079 12.0903C31.9079 11.9699 32.0927 11.9698 32.1926 12.0903L33.2629 13.3833C33.3395 13.4756 33.4692 13.4992 33.5715 13.4458L33.6135 13.4175L34.9153 12.3589C35.0369 12.26 35.2178 12.2962 35.2922 12.4341L36.0901 13.9106C36.1471 14.0159 36.2695 14.0639 36.3801 14.0317L36.427 14.0122L37.9104 13.228C38.049 13.1547 38.2197 13.2257 38.2659 13.3755L38.76 14.979C38.7954 15.0937 38.9066 15.1651 39.0217 15.1548L39.0706 15.145L40.679 14.6645C40.8291 14.6198 40.9831 14.7226 40.9993 14.8784L41.1711 16.5483C41.1855 16.6843 41.3065 16.7835 41.4426 16.771L43.1135 16.6138C43.2696 16.5991 43.4007 16.7302 43.386 16.8862L43.2288 18.5571C43.2161 18.6935 43.3162 18.8154 43.4524 18.8296L45.1213 19.0005C45.2773 19.0165 45.38 19.1706 45.3352 19.3208L44.8547 20.9292C44.816 21.0603 44.8902 21.1992 45.0208 21.2397L46.6252 21.7329C46.775 21.7791 46.846 21.9508 46.7727 22.0894L46.1565 23.2515L45.9876 23.5728C45.9238 23.6939 45.9697 23.8445 46.0901 23.9097L47.5667 24.7065C47.7045 24.781 47.7406 24.9629 47.6418 25.0845L46.8118 26.103L46.5823 26.3862C46.4961 26.4926 46.512 26.6494 46.6174 26.7368L46.8958 26.9673L47.9094 27.8071C48.0301 27.9071 48.0302 28.0919 47.9094 28.1919L46.8958 29.0308L46.6174 29.2622C46.5121 29.3498 46.4958 29.5065 46.5823 29.6128L47.6418 30.9136C47.7407 31.0351 47.7043 31.2169 47.5667 31.2915L46.4075 31.9175L46.0901 32.0894C45.9697 32.1547 45.9235 32.3051 45.9876 32.4263L46.1575 32.7476L46.7727 33.9097C46.8457 34.0481 46.7747 34.2189 46.6252 34.2651L45.3694 34.6509L45.0208 34.7593C44.8901 34.8 44.8155 34.9386 44.8547 35.0698L45.3352 36.6772C45.38 36.8274 45.2773 36.9815 45.1213 36.9976L43.4524 37.1694C43.3681 37.1783 43.2973 37.2283 43.259 37.2974L42.5667 37.5034L41.7493 37.7476L43.259 37.2974C43.2356 37.3398 43.2239 37.39 43.2288 37.4419L43.2629 37.8003L43.386 39.1128C43.4003 39.2686 43.2694 39.399 43.1135 39.3843L41.4426 39.227C41.3063 39.2145 41.1852 39.3144 41.1711 39.4507L40.9993 41.1196L40.9866 41.1753C40.9503 41.2813 40.8465 41.3515 40.7346 41.3442L40.679 41.3335L39.0706 40.854C38.9392 40.815 38.8004 40.889 38.76 41.02L38.6526 41.3667L38.2659 42.6235L38.2434 42.6753C38.1873 42.772 38.0722 42.82 37.9641 42.7915L37.9104 42.771L36.7483 42.1558L36.427 41.9858C36.3058 41.9219 36.1552 41.9677 36.0901 42.0884L35.2922 43.5649L35.26 43.6118C35.186 43.6955 35.0635 43.7196 34.9631 43.6704L34.9153 43.6401L33.6135 42.5806C33.5071 42.4941 33.3504 42.5101 33.2629 42.6157L32.1926 43.9077L32.1516 43.9478C32.0627 44.0154 31.9377 44.0154 31.8489 43.9478L31.8079 43.9077L30.7376 42.6157C30.6501 42.5102 30.4934 42.4942 30.387 42.5806L29.0852 43.6401L29.0374 43.6704C28.9368 43.7197 28.8135 43.6959 28.7395 43.6118L28.7073 43.5649L27.9094 42.0884C27.8442 41.9677 27.6938 41.9217 27.5725 41.9858L26.0891 42.771L26.0364 42.7915C25.9281 42.82 25.8121 42.7723 25.7561 42.6753L25.7336 42.6235L25.2395 41.02C25.1991 40.8889 25.0605 40.8147 24.929 40.854L23.3215 41.3335L23.2649 41.3442C23.1532 41.3511 23.049 41.2813 23.0129 41.1753L23.0012 41.1196L22.8293 39.4507C22.8153 39.3142 22.6935 39.2142 22.5569 39.227L20.886 39.3843C20.7305 39.3985 20.5994 39.2683 20.6135 39.1128L20.7366 37.8052L20.7717 37.4419C20.783 37.3222 20.7075 37.2136 20.5969 37.1792L20.5481 37.1694L18.8782 36.9976C18.7228 36.9811 18.6198 36.8271 18.6643 36.6772L19.0403 35.4175L19.1448 35.0698C19.1791 34.9549 19.127 34.8343 19.0256 34.7788L18.9788 34.7593L17.3752 34.2651C17.2258 34.2189 17.155 34.0481 17.2278 33.9097L17.844 32.7437L18.012 32.4263C18.068 32.3203 18.0408 32.1919 17.9524 32.1177L17.9104 32.0894L16.4338 31.2915C16.2962 31.217 16.2601 31.0351 16.3586 30.9136L17.1887 29.8931L17.4172 29.6128C17.4931 29.5195 17.4911 29.3874 17.4182 29.2974L17.3831 29.2622L16.0901 28.1919C15.9698 28.0921 15.9701 27.9072 16.0901 27.8071L17.1018 26.9692L17.3831 26.7368C17.4888 26.6493 17.5039 26.4927 17.4172 26.3862L16.3586 25.0845C16.2599 24.963 16.2963 24.7812 16.4338 24.7065L17.5901 24.0815L17.9104 23.9097C18.0159 23.8527 18.0638 23.7304 18.0315 23.6196L18.012 23.5728L17.2278 22.0894C17.1545 21.9509 17.2257 21.7793 17.3752 21.7329L18.6311 21.3462L18.9788 21.2397C19.0936 21.2044 19.1649 21.0932 19.1545 20.978L19.1448 20.9292L18.6643 19.3208C18.6197 19.1709 18.7228 19.017 18.8782 19.0005L20.1838 18.8667L20.5481 18.8296C20.6676 18.8173 20.7585 18.7219 20.7708 18.6069L20.7717 18.5571L20.6135 16.8862C20.5989 16.7304 20.7303 16.5996 20.886 16.6138L22.5569 16.771C22.6764 16.7823 22.785 16.7075 22.8196 16.5972L22.8293 16.5483L23.0012 14.8784C23.0174 14.7227 23.1715 14.62 23.3215 14.6645L24.929 15.145C25.044 15.1794 25.1646 15.1264 25.22 15.0249L25.2395 14.979L25.7336 13.3755C25.7797 13.2258 25.9506 13.1551 26.0891 13.228L27.5725 14.0122C27.6787 14.0684 27.808 14.0405 27.8821 13.9517L27.9094 13.9106L28.7073 12.4341C28.7817 12.2962 28.9636 12.2601 29.0852 12.3589L30.387 13.4175C30.48 13.4932 30.6114 13.4908 30.7014 13.4185L30.7376 13.3833L31.8079 12.0903ZM32.0002 16.3247C25.5526 16.3248 20.3254 21.5521 20.3254 27.9995C20.3257 34.4467 25.5528 39.6732 32.0002 39.6733C38.4478 39.6733 43.6748 34.4468 43.6751 27.9995C43.6751 21.552 38.4479 16.3247 32.0002 16.3247Z" fill="#DE4C36"/>
<path d="M22.2344 37V34.5H24.7344V20.125H22.2344V17.625H30.3594C32.25 17.625 33.7318 17.6849 34.8047 17.8047C35.8828 17.9245 36.7214 18.112 37.3203 18.3672C37.9245 18.6172 38.4792 18.9948 38.9844 19.5C39.4375 19.9531 39.7786 20.5234 40.0078 21.2109C40.2422 21.8932 40.3594 22.625 40.3594 23.4062C40.3594 25.8385 39.1849 27.5521 36.8359 28.5469C37.6953 29.2812 38.2448 30.4323 38.4844 32C38.5104 32.1667 38.5417 32.3828 38.5781 32.6484C38.6146 32.9089 38.6432 33.112 38.6641 33.2578C38.6849 33.3984 38.7135 33.5677 38.75 33.7656C38.7865 33.9583 38.8203 34.1068 38.8516 34.2109C38.8828 34.3151 38.9219 34.4193 38.9688 34.5234C39.0156 34.6276 39.0677 34.7031 39.125 34.75C39.1875 34.7917 39.2552 34.8125 39.3281 34.8125C39.4896 34.8125 39.6276 34.7396 39.7422 34.5938C39.862 34.4479 39.9583 34.2318 40.0312 33.9453C40.1042 33.6536 40.1589 33.388 40.1953 33.1484C40.2318 32.9089 40.2734 32.5964 40.3203 32.2109C40.3307 32.1172 40.3385 32.0469 40.3438 32L42.5469 32.2266C42.4948 32.7318 42.4479 33.125 42.4062 33.4062C42.3698 33.6875 42.3073 34.0365 42.2188 34.4531C42.1302 34.8698 42.0286 35.1927 41.9141 35.4219C41.7995 35.651 41.6406 35.9062 41.4375 36.1875C41.2396 36.4635 41.0078 36.6719 40.7422 36.8125C40.4766 36.9479 40.1484 37.0651 39.7578 37.1641C39.3724 37.263 38.9349 37.3125 38.4453 37.3125C38.0911 37.3125 37.7656 37.2969 37.4688 37.2656C37.1719 37.2344 36.8958 37.1823 36.6406 37.1094C36.3906 37.0365 36.1615 36.9557 35.9531 36.8672C35.7448 36.7786 35.5495 36.6589 35.3672 36.5078C35.1849 36.3568 35.0208 36.2057 34.875 36.0547C34.7344 35.8984 34.5964 35.7031 34.4609 35.4688C34.3255 35.2344 34.2057 35.0078 34.1016 34.7891C34.0026 34.5651 33.8958 34.2943 33.7812 33.9766C33.6667 33.6536 33.5651 33.3464 33.4766 33.0547C33.388 32.763 33.2865 32.4115 33.1719 32C33.0312 31.5 32.8984 31.1068 32.7734 30.8203C32.6536 30.5286 32.5 30.276 32.3125 30.0625C32.125 29.849 31.901 29.7031 31.6406 29.625C31.3854 29.5417 31.0625 29.5 30.6719 29.5H29.7344V34.5H32.2344V37H22.2344ZM29.7344 27H30.9844C33.4844 27 34.7344 25.8542 34.7344 23.5625C34.7344 23.1667 34.7057 22.8073 34.6484 22.4844C34.5964 22.1615 34.4974 21.849 34.3516 21.5469C34.2057 21.2448 34.0182 20.9922 33.7891 20.7891C33.5599 20.5859 33.2604 20.4245 32.8906 20.3047C32.5208 20.1849 32.0938 20.125 31.6094 20.125H29.7344V27Z" fill="#DE4C36"/>
<path d="M13.5445 56V44.32H17.2245C18.0032 44.32 18.6752 44.464 19.2405 44.752C19.8165 45.04 20.2645 45.4453 20.5845 45.968C20.9045 46.48 21.0645 47.088 21.0645 47.792C21.0645 48.5707 20.8725 49.2533 20.4885 49.84C20.1045 50.416 19.5872 50.8267 18.9365 51.072L21.2245 56H19.0325L16.9845 51.36H15.5285V56H13.5445ZM15.5285 49.6H17.2245C17.7898 49.6 18.2325 49.4453 18.5525 49.136C18.8725 48.8267 19.0325 48.4 19.0325 47.856C19.0325 47.312 18.8672 46.88 18.5365 46.56C18.2165 46.24 17.7792 46.08 17.2245 46.08H15.5285V49.6ZM26.7063 56.16C25.5863 56.16 24.7063 55.8507 24.0663 55.232C23.4263 54.6027 23.1063 53.7493 23.1063 52.672V47.2H25.1063V52.656C25.1063 53.2107 25.2449 53.6427 25.5223 53.952C25.7996 54.2613 26.1943 54.416 26.7063 54.416C27.2076 54.416 27.5969 54.2613 27.8743 53.952C28.1623 53.6427 28.3063 53.2107 28.3063 52.656V47.2H30.3063V52.672C30.3063 53.7493 29.9809 54.6027 29.3303 55.232C28.6796 55.8507 27.8049 56.16 26.7063 56.16ZM35.932 56.144C34.8867 56.144 34.06 55.9093 33.452 55.44C32.844 54.96 32.54 54.3147 32.54 53.504H34.508C34.508 53.8453 34.6307 54.1067 34.876 54.288C35.132 54.4693 35.484 54.56 35.932 54.56H36.636C37.116 54.56 37.484 54.4693 37.74 54.288C38.0067 54.1067 38.14 53.8453 38.14 53.504C38.14 53.184 38.0493 52.9493 37.868 52.8C37.6867 52.64 37.4093 52.5333 37.036 52.48L34.844 52.192C34.14 52.096 33.596 51.824 33.212 51.376C32.8387 50.928 32.652 50.3467 32.652 49.632C32.652 48.8 32.9293 48.1653 33.484 47.728C34.0387 47.28 34.8387 47.056 35.884 47.056H36.62C37.6013 47.056 38.3907 47.28 38.988 47.728C39.5853 48.176 39.8947 48.7733 39.916 49.52H37.932C37.9213 49.2427 37.7987 49.024 37.564 48.864C37.3293 48.6933 37.0147 48.608 36.62 48.608H35.884C35.4573 48.608 35.132 48.6987 34.908 48.88C34.684 49.0507 34.572 49.2853 34.572 49.584C34.572 49.8507 34.652 50.048 34.812 50.176C34.9827 50.304 35.228 50.384 35.548 50.416L37.612 50.704C38.4227 50.8 39.0307 51.088 39.436 51.568C39.852 52.0373 40.06 52.672 40.06 53.472C40.06 54.3253 39.7667 54.9867 39.18 55.456C38.604 55.9147 37.756 56.144 36.636 56.144H35.932ZM46.7738 56C45.9524 56 45.2964 55.7653 44.8058 55.296C44.3258 54.816 44.0858 54.1707 44.0858 53.36V49.008H41.6538V47.2H44.0858V44.72H46.1018V47.2H49.6058V49.008H46.1018V53.312C46.1018 53.568 46.1711 53.7813 46.3098 53.952C46.4591 54.112 46.6618 54.192 46.9178 54.192H49.5258V56H46.7738Z" fill="#DE4C36"/>
</svg>
