<svg width="18" height="18" viewBox="0 0 18 18" fill="none" xmlns="http://www.w3.org/2000/svg">
<path d="M8.29289 8.65685C7.90237 9.04737 7.90237 9.68054 8.29289 10.0711C8.68342 10.4616 9.31658 10.4616 9.70711 10.0711L9 9.36395L8.29289 8.65685ZM16.364 2.99999C16.364 2.44771 15.9162 1.99999 15.364 1.99999L6.36396 1.99999C5.81168 1.99999 5.36396 2.44771 5.36396 2.99999C5.36396 3.55228 5.81168 3.99999 6.36396 3.99999H14.364V12C14.364 12.5523 14.8117 13 15.364 13C15.9162 13 16.364 12.5523 16.364 12L16.364 2.99999ZM9 9.36395L9.70711 10.0711L16.0711 3.7071L15.364 2.99999L14.6569 2.29288L8.29289 8.65685L9 9.36395Z" fill="#D9D9D9"/>
<path d="M10.0711 9.70711C10.4616 9.31658 10.4616 8.68342 10.0711 8.29289C9.68055 7.90237 9.04739 7.90237 8.65686 8.29289L9.36397 9L10.0711 9.70711ZM2.00001 15.364C2.00001 15.9162 2.44772 16.364 3.00001 16.364L12 16.364C12.5523 16.364 13 15.9162 13 15.364C13 14.8117 12.5523 14.364 12 14.364H4.00001V6.36396C4.00001 5.81168 3.55229 5.36396 3.00001 5.36396C2.44772 5.36396 2.00001 5.81168 2.00001 6.36396L2.00001 15.364ZM9.36397 9L8.65686 8.29289L2.2929 14.6569L3.00001 15.364L3.70711 16.0711L10.0711 9.70711L9.36397 9Z" fill="#D9D9D9"/>
<circle cx="9" cy="9" r="3" fill="white"/>
</svg>
