<svg width="64" height="64" viewBox="0 0 64 64" fill="none" xmlns="http://www.w3.org/2000/svg">
<path d="M12 8C12 6.89543 12.8954 6 14 6H36C44.8366 6 52 13.1634 52 22V56C52 57.1046 51.1046 58 50 58H14C12.8954 58 12 57.1046 12 56V8Z" fill="#D9D9D9"/>
<path d="M37.134 40.5C37.5189 41.1667 38.4811 41.1667 38.866 40.5L49.2583 22.5C49.6432 21.8333 49.1621 21 48.3923 21H27.6077C26.8379 21 26.3568 21.8333 26.7417 22.5L37.134 40.5Z" fill="url(#paint0_linear_15_25)"/>
<path d="M29.134 43.5C29.5189 44.1667 30.4811 44.1667 30.866 43.5L45.5885 18C45.9734 17.3333 45.4922 16.5 44.7224 16.5H15.2776C14.5078 16.5 14.0266 17.3333 14.4115 18L29.134 43.5Z" fill="url(#paint1_linear_15_25)"/>
<path d="M16.7817 55.09C16.1284 55.09 15.6117 54.9433 15.2317 54.65C14.8517 54.35 14.6617 53.9467 14.6617 53.44H15.8917C15.8917 53.6533 15.9684 53.8167 16.1217 53.93C16.2817 54.0433 16.5017 54.1 16.7817 54.1H17.2217C17.5217 54.1 17.7517 54.0433 17.9117 53.93C18.0784 53.8167 18.1617 53.6533 18.1617 53.44C18.1617 53.24 18.1051 53.0933 17.9917 53C17.8784 52.9 17.7051 52.8333 17.4717 52.8L16.1017 52.62C15.6617 52.56 15.3217 52.39 15.0817 52.11C14.8484 51.83 14.7317 51.4667 14.7317 51.02C14.7317 50.5 14.9051 50.1033 15.2517 49.83C15.5984 49.55 16.0984 49.41 16.7517 49.41H17.2117C17.8251 49.41 18.3184 49.55 18.6917 49.83C19.0651 50.11 19.2584 50.4833 19.2717 50.95H18.0317C18.0251 50.7767 17.9484 50.64 17.8017 50.54C17.6551 50.4333 17.4584 50.38 17.2117 50.38H16.7517C16.4851 50.38 16.2817 50.4367 16.1417 50.55C16.0017 50.6567 15.9317 50.8033 15.9317 50.99C15.9317 51.1567 15.9817 51.28 16.0817 51.36C16.1884 51.44 16.3417 51.49 16.5417 51.51L17.8317 51.69C18.3384 51.75 18.7184 51.93 18.9717 52.23C19.2317 52.5233 19.3617 52.92 19.3617 53.42C19.3617 53.9533 19.1784 54.3667 18.8117 54.66C18.4517 54.9467 17.9217 55.09 17.2217 55.09H16.7817ZM20.7778 55V47.7H22.0278V49.5L21.9978 50.52C22.0645 50.1733 22.2278 49.9 22.4878 49.7C22.7478 49.5 23.0778 49.4 23.4778 49.4C24.0178 49.4 24.4478 49.58 24.7678 49.94C25.0945 50.3 25.2578 50.7833 25.2578 51.39V55H24.0078V51.54C24.0078 51.2 23.9178 50.94 23.7378 50.76C23.5645 50.5733 23.3278 50.48 23.0278 50.48C22.7145 50.48 22.4678 50.5733 22.2878 50.76C22.1145 50.9467 22.0278 51.2133 22.0278 51.56V55H20.7778ZM28.3939 55.1C27.8339 55.1 27.3906 54.9433 27.0639 54.63C26.7439 54.31 26.5839 53.8933 26.5839 53.38C26.5839 52.8467 26.7672 52.4233 27.1339 52.11C27.5006 51.79 28.0039 51.63 28.6439 51.63H29.9839V51.24C29.9839 50.6867 29.6606 50.41 29.0139 50.41C28.7206 50.41 28.4872 50.4667 28.3139 50.58C28.1406 50.6933 28.0439 50.8533 28.0239 51.06H26.8239C26.8506 50.5667 27.0572 50.1667 27.4439 49.86C27.8372 49.5533 28.3639 49.4 29.0239 49.4C29.7239 49.4 30.2672 49.5633 30.6539 49.89C31.0406 50.2167 31.2339 50.6767 31.2339 51.27V55H30.0139V53.97C29.9672 54.3233 29.8006 54.6 29.5139 54.8C29.2272 55 28.8539 55.1 28.3939 55.1ZM28.7939 54.08C29.1606 54.08 29.4506 53.99 29.6639 53.81C29.8772 53.63 29.9839 53.39 29.9839 53.09V52.44H28.7039C28.4306 52.44 28.2139 52.5167 28.0539 52.67C27.8939 52.8233 27.8139 53.02 27.8139 53.26C27.8139 53.5067 27.8972 53.7067 28.0639 53.86C28.2372 54.0067 28.4806 54.08 28.7939 54.08ZM34.5 55.1C33.9667 55.1 33.5333 54.91 33.2 54.53C32.8733 54.15 32.71 53.64 32.71 53V51.51C32.71 50.8633 32.8733 50.35 33.2 49.97C33.5267 49.59 33.96 49.4 34.5 49.4C34.88 49.4 35.2 49.4967 35.46 49.69C35.7267 49.8833 35.9133 50.1533 36.02 50.5L35.98 49.24V47.7H37.23V55H36.01V54C35.91 54.3467 35.73 54.6167 35.47 54.81C35.21 55.0033 34.8867 55.1 34.5 55.1ZM34.97 54.02C35.29 54.02 35.5367 53.9233 35.71 53.73C35.89 53.5367 35.98 53.2633 35.98 52.91V51.59C35.98 51.2367 35.89 50.9633 35.71 50.77C35.5367 50.5767 35.29 50.48 34.97 50.48C34.65 50.48 34.4 50.5667 34.22 50.74C34.0467 50.9133 33.96 51.18 33.96 51.54V52.96C33.96 53.32 34.0467 53.5867 34.22 53.76C34.4 53.9333 34.65 54.02 34.97 54.02ZM41.0061 55.1C40.5394 55.1 40.1328 55.01 39.7861 54.83C39.4394 54.65 39.1694 54.3967 38.9761 54.07C38.7894 53.7367 38.6961 53.3467 38.6961 52.9V51.6C38.6961 51.1533 38.7894 50.7667 38.9761 50.44C39.1694 50.1067 39.4394 49.85 39.7861 49.67C40.1328 49.49 40.5394 49.4 41.0061 49.4C41.4661 49.4 41.8661 49.49 42.2061 49.67C42.5528 49.85 42.8194 50.1033 43.0061 50.43C43.1994 50.75 43.2961 51.1267 43.2961 51.56V52.56H39.8961V52.94C39.8961 53.3133 39.9928 53.5967 40.1861 53.79C40.3794 53.9767 40.6528 54.07 41.0061 54.07C41.2661 54.07 41.4861 54.0267 41.6661 53.94C41.8528 53.8467 41.9628 53.7133 41.9961 53.54H43.2361C43.1494 54.0133 42.9028 54.3933 42.4961 54.68C42.0894 54.96 41.5928 55.1 41.0061 55.1ZM39.8961 51.56V51.75L42.0961 51.74V51.55C42.0961 51.17 42.0028 50.8767 41.8161 50.67C41.6294 50.4633 41.3594 50.36 41.0061 50.36C40.6394 50.36 40.3628 50.4667 40.1761 50.68C39.9894 50.8867 39.8961 51.18 39.8961 51.56ZM44.9622 55V49.5H46.1822V50.57C46.2489 50.21 46.4122 49.9267 46.6722 49.72C46.9389 49.5067 47.2822 49.4 47.7022 49.4C48.2622 49.4 48.6989 49.58 49.0122 49.94C49.3255 50.3 49.4822 50.8033 49.4822 51.45V51.97H48.2322V51.51C48.2322 51.1767 48.1455 50.9233 47.9722 50.75C47.7989 50.57 47.5522 50.48 47.2322 50.48C46.8989 50.48 46.6455 50.58 46.4722 50.78C46.2989 50.98 46.2122 51.2633 46.2122 51.63V55H44.9622Z" fill="#777777"/>
<defs>
<linearGradient id="paint0_linear_15_25" x1="38" y1="14" x2="38" y2="42" gradientUnits="userSpaceOnUse">
<stop offset="0.25" stop-color="#7E6CD5"/>
<stop offset="0.918269" stop-color="#304E8F"/>
</linearGradient>
<linearGradient id="paint1_linear_15_25" x1="30" y1="7" x2="30" y2="45" gradientUnits="userSpaceOnUse">
<stop stop-color="#AA99FD"/>
<stop offset="1" stop-color="#426AC3"/>
</linearGradient>
</defs>
</svg>
