<svg width="16" height="16" viewBox="0 0 16 16" fill="none" xmlns="http://www.w3.org/2000/svg">
<path d="M9 3.28155C9 2.10702 10.2941 1.64438 10.7979 2.70538C11.5563 4.30275 11.9999 6.22955 12 8.30498C12 10.3806 11.5564 12.3081 10.7979 13.9056C10.294 14.9664 9.00004 14.5038 9 13.3294C9 13.1349 9.0448 12.9434 9.12207 12.7649C9.66602 11.5089 10 9.98292 10 8.30498C9.99993 6.6271 9.66603 5.10192 9.12207 3.846C9.04476 3.6675 9.00005 3.47606 9 3.28155Z" fill="#B87BBE"/>
<path d="M12.333 2.40469C12.3333 0.980552 13.8901 0.634007 14.25 2.01212C14.7326 3.86037 15 5.8957 15 8.0336L14.9873 8.82266C14.9301 10.6718 14.6734 12.4343 14.251 14.0531C13.8912 15.4318 12.3331 15.0853 12.333 13.6606C12.333 13.5427 12.3487 13.4253 12.377 13.3109C12.7747 11.7032 13 9.92253 13 8.0336C13 6.14408 12.775 4.36232 12.377 2.7543C12.3487 2.63997 12.333 2.52247 12.333 2.40469Z" fill="#B87BBE"/>
<path d="M8 12.9195C8 13.758 7.03007 14.2242 6.37531 13.7004L3.27391 11.2193C3.0966 11.0774 2.87629 11.0001 2.64922 11.0001H2C1.44772 11.0001 1 10.5524 1 10.0001V6.00012C1 5.44784 1.44772 5.00012 2 5.00012H2.64922C2.87629 5.00012 3.0966 4.92284 3.27391 4.78099L6.3753 2.29988C7.03007 1.77607 8 2.24224 8 3.08075V12.9195Z" fill="#D9D9D9"/>
</svg>
