<svg width="16" height="16" viewBox="0 0 16 16" fill="none" xmlns="http://www.w3.org/2000/svg">
<path d="M9 4.11696C9 2.80858 10.4128 2.37367 10.8545 3.60524C11.372 5.04812 11.666 6.70365 11.666 8.46364L11.6572 8.9861C11.6051 10.5498 11.3208 12.0199 10.8555 13.3181C10.4138 14.5503 9.00032 14.1161 9 12.8074C9 12.6483 9.02807 12.4899 9.07715 12.3386C9.44668 11.1995 9.66589 9.88558 9.66602 8.46364C9.66602 7.04064 9.44699 5.72472 9.07715 4.58473C9.02812 4.43364 9.00005 4.2758 9 4.11696Z" fill="#0077FF"/>
<path d="M12.333 3.25172C12.3332 1.8637 13.8603 1.49741 14.2393 2.83278C14.7291 4.55906 15 6.46261 15 8.46266L14.9873 9.19411C14.9297 10.9262 14.6686 12.5767 14.2393 14.0906C13.8604 15.4263 12.333 15.0601 12.333 13.6716C12.333 13.5454 12.3512 13.4196 12.3838 13.2976C12.7768 11.8256 13 10.1942 13 8.46266C13 6.73075 12.7769 5.09899 12.3838 3.62672C12.3512 3.50458 12.333 3.37815 12.333 3.25172Z" fill="#0077FF"/>
<path d="M8 13.9192C8 14.7577 7.03007 15.2238 6.37531 14.7L3.27391 12.2189C3.0966 12.0771 2.87629 11.9998 2.64922 11.9998H2C1.44772 11.9998 1 11.5521 1 10.9998V5.99979C1 5.44751 1.44772 4.99979 2 4.99979H2.64922C2.87629 4.99979 3.0966 4.92251 3.27391 4.78066L6.3753 2.29955C7.03007 1.77574 8 2.24191 8 3.08042V13.9192Z" fill="#D9D9D9"/>
</svg>
