<svg width="16" height="16" viewBox="0 0 16 16" fill="none" xmlns="http://www.w3.org/2000/svg">
<path d="M2 3C2 1.89543 2.89543 1 4 1H9C11.7614 1 14 3.23858 14 6V13C14 14.1046 13.1046 15 12 15H4C2.89543 15 2 14.1046 2 13V3Z" fill="#D9D9D9"/>
<path d="M3.72754 12V10.9062H4.82129V4.61719H3.72754V3.52344H7.28223C8.10938 3.52344 8.75765 3.54964 9.22705 3.60205C9.69873 3.65446 10.0656 3.73649 10.3276 3.84814C10.592 3.95752 10.8346 4.12272 11.0557 4.34375C11.2539 4.54199 11.4032 4.7915 11.5034 5.09229C11.606 5.39079 11.6572 5.71094 11.6572 6.05273C11.6572 7.11686 11.1434 7.86654 10.1157 8.30176C10.4917 8.62305 10.7321 9.12663 10.8369 9.8125C10.8483 9.88542 10.862 9.97998 10.8779 10.0962C10.8939 10.2101 10.9064 10.299 10.9155 10.3628C10.9246 10.4243 10.9372 10.4984 10.9531 10.585C10.9691 10.6693 10.9839 10.7342 10.9976 10.7798C11.0112 10.8254 11.0283 10.8709 11.0488 10.9165C11.0693 10.9621 11.0921 10.9951 11.1172 11.0156C11.1445 11.0339 11.1742 11.043 11.2061 11.043C11.2767 11.043 11.3371 11.0111 11.3872 10.9473C11.4396 10.8835 11.4818 10.7889 11.5137 10.6636C11.5456 10.536 11.5695 10.4198 11.5854 10.3149C11.6014 10.2101 11.6196 10.0734 11.6401 9.90479C11.6447 9.86377 11.6481 9.83301 11.6504 9.8125L12.6143 9.91162C12.5915 10.1326 12.571 10.3047 12.5527 10.4277C12.5368 10.5508 12.5094 10.7035 12.4707 10.8857C12.432 11.068 12.3875 11.2093 12.3374 11.3096C12.2873 11.4098 12.2178 11.5215 12.1289 11.6445C12.0423 11.7653 11.9409 11.8564 11.8247 11.918C11.7085 11.9772 11.5649 12.0285 11.394 12.0718C11.2254 12.1151 11.034 12.1367 10.8198 12.1367C10.6649 12.1367 10.5225 12.1299 10.3926 12.1162C10.2627 12.1025 10.1419 12.0798 10.0303 12.0479C9.9209 12.016 9.82064 11.9806 9.72949 11.9419C9.63835 11.9032 9.5529 11.8507 9.47314 11.7847C9.39339 11.7186 9.32161 11.6525 9.25781 11.5864C9.19629 11.5181 9.1359 11.4326 9.07666 11.3301C9.01742 11.2275 8.96501 11.1284 8.91943 11.0327C8.87614 10.9347 8.82943 10.8162 8.7793 10.6772C8.72917 10.536 8.68473 10.4015 8.646 10.2739C8.60726 10.1463 8.56283 9.99251 8.5127 9.8125C8.45117 9.59375 8.39307 9.42171 8.33838 9.29639C8.28597 9.16878 8.21875 9.05827 8.13672 8.96484C8.05469 8.87142 7.95671 8.80762 7.84277 8.77344C7.73112 8.73698 7.58984 8.71875 7.41895 8.71875H7.00879V10.9062H8.10254V12H3.72754ZM7.00879 7.625H7.55566C8.64941 7.625 9.19629 7.1237 9.19629 6.12109C9.19629 5.94792 9.18376 5.79069 9.15869 5.64941C9.1359 5.50814 9.09261 5.37142 9.02881 5.23926C8.96501 5.1071 8.88298 4.99658 8.78271 4.90771C8.68245 4.81885 8.55143 4.74821 8.38965 4.6958C8.22786 4.64339 8.04102 4.61719 7.8291 4.61719H7.00879V7.625Z" fill="#DE4C36"/>
</svg>
