<svg width="16" height="16" viewBox="0 0 16 16" fill="none" xmlns="http://www.w3.org/2000/svg">
<path d="M11 5H7V1H11V5ZM9 2V4H10V2H9Z" fill="#829DF4"/>
<rect x="7" y="6" width="3" height="6" fill="#829DF4"/>
<rect x="8" y="5" width="1" height="1" fill="#829DF4"/>
<rect x="8" y="14" width="3" height="2" transform="rotate(-180 8 14)" fill="#829DF4"/>
<rect x="12" y="8" width="2" height="2" transform="rotate(-180 12 8)" fill="#829DF4"/>
<rect x="7" y="8" width="3" height="2" transform="rotate(-180 7 8)" fill="#829DF4"/>
<rect x="12" y="8" width="5" height="2" transform="rotate(-90 12 8)" fill="#829DF4"/>
<rect x="13" y="12" width="3" height="2" transform="rotate(90 13 12)" fill="#829DF4"/>
<rect x="14" y="13" width="2" height="2" transform="rotate(90 14 13)" fill="#829DF4"/>
<rect x="13" y="12" width="3" height="2" transform="rotate(180 13 12)" fill="#829DF4"/>
<rect x="2" y="10" width="3" height="2" transform="rotate(-90 2 10)" fill="#829DF4"/>
<rect x="3" y="15" width="3" height="2" transform="rotate(-90 3 15)" fill="#829DF4"/>
</svg>
