<svg width="16" height="16" viewBox="0 0 16 16" fill="none" xmlns="http://www.w3.org/2000/svg">
<rect x="1.5" y="1.5" width="13" height="13" rx="1.5" fill="#D9D9D9" fill-opacity="0.25" stroke="#71E3B5"/>
<mask id="path-2-inside-1_49_77" fill="white">
<path d="M10.2163 8.64319C10.6116 8.25742 11.2528 8.25743 11.648 8.64321L14.9995 11.9138L14.9995 12.9997C14.9994 14.1042 14.104 14.9997 12.9994 14.9997L7.60784 14.9996L6.37153 13.7925C5.97666 13.4069 5.97673 12.7818 6.37155 12.3961L10.2163 8.64319Z"/>
</mask>
<path d="M10.2163 8.64319C10.6116 8.25742 11.2528 8.25743 11.648 8.64321L14.9995 11.9138L14.9995 12.9997C14.9994 14.1042 14.104 14.9997 12.9994 14.9997L7.60784 14.9996L6.37153 13.7925C5.97666 13.4069 5.97673 12.7818 6.37155 12.3961L10.2163 8.64319Z" fill="#777777"/>
<path d="M10.2163 8.64319L9.51784 7.92757L9.51783 7.92758L10.2163 8.64319ZM11.648 8.64321L10.9495 9.35881L10.9496 9.35891L11.648 8.64321ZM14.9995 11.9138L15.9995 11.9138L15.9995 11.4924L15.6979 11.1981L14.9995 11.9138ZM14.9995 12.9997L15.9995 12.9998L15.9995 12.9997L14.9995 12.9997ZM7.60784 14.9996L6.90925 15.7151L7.20062 15.9996L7.60783 15.9996L7.60784 14.9996ZM6.37153 13.7925L5.67279 14.5079L5.67294 14.5081L6.37153 13.7925ZM6.37155 12.3961L5.67305 11.6805L5.67275 11.6808L6.37155 12.3961ZM10.2163 8.64319L10.9148 9.35881C10.9162 9.3575 10.9172 9.35682 10.9191 9.35605C10.9217 9.35502 10.9263 9.35387 10.9321 9.35387C10.938 9.35387 10.9426 9.35502 10.9452 9.35605C10.9471 9.35682 10.9481 9.3575 10.9495 9.35881L11.648 8.64321L12.3465 7.92761C11.5628 7.16264 10.3016 7.16262 9.51784 7.92757L10.2163 8.64319ZM11.648 8.64321L10.9496 9.35891L14.3011 12.6295L14.9995 11.9138L15.6979 11.1981L12.3464 7.92751L11.648 8.64321ZM14.9995 11.9138L13.9995 11.9138L13.9995 12.9997L14.9995 12.9997L15.9995 12.9997L15.9995 11.9138L14.9995 11.9138ZM14.9995 12.9997L13.9995 12.9996C13.9994 13.552 13.5516 13.9997 12.9995 13.9997L12.9994 14.9997L12.9994 15.9997C14.6563 15.9997 15.9993 14.6564 15.9995 12.9998L14.9995 12.9997ZM12.9994 14.9997L12.9995 13.9997L7.60786 13.9996L7.60784 14.9996L7.60783 15.9996L12.9994 15.9997L12.9994 14.9997ZM7.60784 14.9996L8.30643 14.2841L7.07012 13.077L6.37153 13.7925L5.67294 14.5081L6.90925 15.7151L7.60784 14.9996ZM6.37153 13.7925L7.07027 13.0772C7.069 13.0759 7.07104 13.0777 7.07298 13.0824C7.07466 13.0864 7.07541 13.0905 7.07541 13.0944C7.07541 13.0982 7.07466 13.1022 7.073 13.1062C7.07107 13.1109 7.06906 13.1126 7.07036 13.1114L6.37155 12.3961L5.67275 11.6808C4.87643 12.4587 4.87614 13.7298 5.67279 14.5079L6.37153 13.7925ZM6.37155 12.3961L7.07006 13.1117L10.9148 9.3588L10.2163 8.64319L9.51783 7.92758L5.67305 11.6805L6.37155 12.3961Z" fill="#D9D9D9" mask="url(#path-2-inside-1_49_77)"/>
<mask id="path-4-inside-2_49_77" fill="white">
<path d="M4.70617 6.535C5.09524 6.14307 5.72629 6.14309 6.11535 6.53502L14.1523 14.6318C13.8263 14.8625 13.4297 15 13 15L3 14.9998C1.89543 14.9998 1.00001 14.1044 1.00002 12.9998L1.00006 10.2683L4.70617 6.535Z"/>
</mask>
<path d="M4.70617 6.535C5.09524 6.14307 5.72629 6.14309 6.11535 6.53502L14.1523 14.6318C13.8263 14.8625 13.4297 15 13 15L3 14.9998C1.89543 14.9998 1.00001 14.1044 1.00002 12.9998L1.00006 10.2683L4.70617 6.535Z" fill="#777777"/>
<path d="M4.70617 6.535L3.99648 5.83048L3.99648 5.83048L4.70617 6.535ZM6.11535 6.53502L6.82508 5.83054L6.82505 5.83051L6.11535 6.53502ZM14.1523 14.6318L14.7299 15.4482L15.6943 14.7658L14.8621 13.9273L14.1523 14.6318ZM13 15L13 16V16L13 15ZM3 14.9998L2.99998 15.9998L2.99998 15.9998L3 14.9998ZM1.00002 12.9998L2.00002 12.9998V12.9998L1.00002 12.9998ZM1.00006 10.2683L0.290373 9.56383L6.97026e-05 9.85626L6.37338e-05 10.2683L1.00006 10.2683ZM4.70617 6.535L5.41586 7.23951C5.41676 7.2386 5.4169 7.23863 5.41622 7.23908C5.4156 7.23949 5.41478 7.23994 5.41387 7.24031C5.41217 7.24101 5.41112 7.24106 5.41075 7.24106C5.41037 7.24106 5.40933 7.24101 5.40763 7.24031C5.40673 7.23994 5.40591 7.2395 5.40529 7.23909C5.40462 7.23864 5.40475 7.23861 5.40566 7.23953L6.11535 6.53502L6.82505 5.83051C6.04489 5.04461 4.77669 5.04455 3.99648 5.83048L4.70617 6.535ZM6.11535 6.53502L5.40563 7.2395L13.4426 15.3363L14.1523 14.6318L14.8621 13.9273L6.82508 5.83054L6.11535 6.53502ZM14.1523 14.6318L13.5748 13.8155C13.4088 13.9329 13.2123 14 13 14L13 15L13 16C13.6472 16 14.2439 15.792 14.7299 15.4482L14.1523 14.6318ZM13 15L13 14L3.00001 13.9998L3 14.9998L2.99998 15.9998L13 16L13 15ZM3 14.9998L3.00001 13.9998C2.44773 13.9998 2.00002 13.5521 2.00002 12.9998L1.00002 12.9998L2.41685e-05 12.9998C-1.88841e-07 14.6566 1.34313 15.9998 2.99998 15.9998L3 14.9998ZM1.00002 12.9998L2.00002 12.9998L2.00006 10.2684L1.00006 10.2683L6.37338e-05 10.2683L2.41685e-05 12.9998L1.00002 12.9998ZM1.00006 10.2683L1.70975 10.9729L5.41586 7.23951L4.70617 6.535L3.99648 5.83048L0.290373 9.56383L1.00006 10.2683Z" fill="#D9D9D9" mask="url(#path-4-inside-2_49_77)"/>
<ellipse cx="11.5" cy="4.5" rx="1.49998" ry="1.50001" fill="#D9D9D9"/>
<rect x="1.5" y="1.5" width="13" height="13" rx="1.5" stroke="#71E3B5"/>
</svg>
